%TF.GenerationSoftware,KiCad,Pcbnew,10.0.5*%
%TF.CreationDate,2026-09-28T00:55:47+09:00*%
%TF.ProjectId,Famicom1,46616d69-636f-46d3-912e-6b696361645f,rev?*%
%TF.SameCoordinates,Original*%
%TF.FileFunction,Soldermask,Bot*%
%TF.FilePolarity,Negative*%
%FSLAX46Y46*%
G04 Gerber Fmt 4.6, Leading zero omitted, Abs format (unit mm)*
G04 Created by KiCad (PCBNEW 10.0.5) date 2026-09-28 00:55:47*
%MOMM*%
%LPD*%
G01*
G04 APERTURE LIST*
%ADD10C,2.020000*%
%ADD11C,1.500000*%
%ADD12C,2.000000*%
%ADD13O,1.520000X1.200000*%
G04 APERTURE END LIST*
D10*
%TO.C,U13*%
X39600000Y-70880000D03*
X39600000Y-73420000D03*
X39600000Y-75960000D03*
X39600000Y-78500000D03*
X39600000Y-81040000D03*
X39600000Y-83580000D03*
X39600000Y-86120000D03*
X39600000Y-88660000D03*
X39600000Y-91200000D03*
X39600000Y-93740000D03*
X39600000Y-96280000D03*
X39600000Y-98820000D03*
X39600000Y-101360000D03*
X39600000Y-103900000D03*
X39600000Y-106440000D03*
X65000000Y-106440000D03*
X65000000Y-103900000D03*
X65000000Y-101360000D03*
X65000000Y-98820000D03*
X65000000Y-96280000D03*
X65000000Y-93740000D03*
X65000000Y-91200000D03*
X65000000Y-88660000D03*
X65000000Y-86120000D03*
X65000000Y-83580000D03*
X65000000Y-81040000D03*
X65000000Y-78500000D03*
X65000000Y-75960000D03*
X65000000Y-73420000D03*
X65000000Y-70880000D03*
%TD*%
D11*
%TO.C,SW1*%
X126000000Y-46250000D03*
X126000000Y-48250000D03*
X126000000Y-50250000D03*
D12*
X126000000Y-44050000D03*
X126000000Y-52450000D03*
%TD*%
D13*
%TO.C,J1*%
X40000000Y-40000000D03*
X42540000Y-40000000D03*
X45080000Y-40000000D03*
X47620000Y-40000000D03*
X50160000Y-40000000D03*
X52700000Y-40000000D03*
X55240000Y-40000000D03*
X57780000Y-40000000D03*
X60320000Y-40000000D03*
X62860000Y-40000000D03*
X65400000Y-40000000D03*
X67940000Y-40000000D03*
X70480000Y-40000000D03*
X73020000Y-40000000D03*
X75560000Y-40000000D03*
X78100000Y-40000000D03*
X80640000Y-40000000D03*
X83180000Y-40000000D03*
X85720000Y-40000000D03*
X88260000Y-40000000D03*
X90800000Y-40000000D03*
X93340000Y-40000000D03*
X95880000Y-40000000D03*
X98420000Y-40000000D03*
X100960000Y-40000000D03*
X103500000Y-40000000D03*
X106040000Y-40000000D03*
X108580000Y-40000000D03*
X111120000Y-40000000D03*
X113660000Y-40000000D03*
X40000000Y-34920000D03*
X42540000Y-34920000D03*
X45080000Y-34920000D03*
X47620000Y-34920000D03*
X50160000Y-34920000D03*
X52700000Y-34920000D03*
X55240000Y-34920000D03*
X57780000Y-34920000D03*
X60320000Y-34920000D03*
X62860000Y-34920000D03*
X65400000Y-34920000D03*
X67940000Y-34920000D03*
X70480000Y-34920000D03*
X73020000Y-34920000D03*
X75560000Y-34920000D03*
X78100000Y-34920000D03*
X80640000Y-34920000D03*
X83180000Y-34920000D03*
X85720000Y-34920000D03*
X88260000Y-34920000D03*
X90800000Y-34920000D03*
X93340000Y-34920000D03*
X95880000Y-34920000D03*
X98420000Y-34920000D03*
X100960000Y-34920000D03*
X103500000Y-34920000D03*
X106040000Y-34920000D03*
X108580000Y-34920000D03*
X111120000Y-34920000D03*
X113660000Y-34920000D03*
%TD*%
M02*
