M48
; DRILL file KiCad 10.0.5 date 2026-09-28T00:55:41
; FORMAT={-:-/ absolute / metric / decimal}
; #@! TF.CreationDate,2026-09-28T00:55:41+09:00
; #@! TF.GenerationSoftware,Kicad,Pcbnew,10.0.5
; #@! TF.FileFunction,Plated,1,2,PTH
FMAT,2
METRIC
; #@! TA.AperFunction,Plated,PTH,ViaDrill
T1C0.300
; #@! TA.AperFunction,Plated,PTH,ViaDrill
T2C0.500
; #@! TA.AperFunction,Plated,PTH,ComponentDrill
T3C0.700
; #@! TA.AperFunction,Plated,PTH,ComponentDrill
T4C1.020
; #@! TA.AperFunction,Plated,PTH,ComponentDrill
T5C1.200
%
G90
G05
T1
X37.0Y-32.5
X37.0Y-35.5
X37.0Y-38.25
X37.0Y-40.75
X37.0Y-42.75
X37.0Y-44.5
X38.75Y-42.75
X38.75Y-44.5
X42.5Y-47.5
X45.0Y-43.5
X45.5Y-36.5
X45.5Y-48.5
X46.379Y-43.328
X47.5Y-43.6
X47.5Y-57.25
X47.5Y-58.5
X47.5Y-64.0
X47.5Y-64.95
X47.5Y-65.75
X51.0Y-47.75
X51.75Y-33.0
X52.0Y-103.0
X52.0Y-104.0
X52.0Y-104.0
X53.75Y-103.0
X53.75Y-104.0
X54.0Y-37.5
X54.0Y-43.0
X54.0Y-44.0
X54.0Y-45.0
X54.0Y-50.75
X55.5Y-103.0
X55.5Y-104.0
X57.0Y-52.9
X57.9Y-54.0
X58.249Y-47.01
X58.5Y-48.5
X58.5Y-57.25
X58.5Y-58.5
X58.5Y-64.0
X58.5Y-64.95
X58.5Y-65.75
X59.0Y-54.0
X59.141Y-47.01
X60.0Y-48.0
X62.0Y-48.75
X62.75Y-55.0
X63.0Y-57.25
X63.25Y-64.0
X63.25Y-64.95
X63.25Y-65.75
X63.75Y-57.9
X65.25Y-55.0
X65.5Y-60.5
X65.5Y-61.25
X65.5Y-62.0
X65.5Y-63.0
X66.5Y-44.0
X67.0Y-72.25
X67.451Y-73.549
X67.5Y-43.0
X67.5Y-44.0
X67.5Y-57.25
X68.0Y-50.25
X69.5Y-43.5
X69.5Y-61.75
X69.5Y-62.75
X69.5Y-69.5
X70.25Y-77.25
X70.316Y-42.684
X70.5Y-70.5
X70.5Y-71.75
X71.5Y-47.5
X71.5Y-61.0
X72.095Y-53.595
X72.5Y-47.5
X72.5Y-57.75
X72.5Y-63.0
X73.0Y-61.0
X73.365Y-53.865
X73.5Y-63.0
X73.75Y-74.0
X74.0Y-47.5
X74.0Y-61.0
X74.25Y-66.4
X74.5Y-33.0
X74.635Y-53.385
X75.0Y-47.5
X75.0Y-61.0
X75.0Y-62.4
X75.0Y-76.5
X75.5Y-69.5
X76.0Y-47.5
X76.0Y-61.8
X76.0Y-67.0
X76.5Y-70.5
X76.5Y-71.75
X77.0Y-47.5
X78.0Y-42.0
X78.0Y-47.5
X78.5Y-66.25
X79.0Y-43.0
X79.0Y-76.5
X79.5Y-52.0
X79.75Y-49.0
X80.0Y-74.0
X80.75Y-37.0
X80.9Y-52.0
X81.5Y-69.5
X82.0Y-32.75
X82.5Y-50.5
X82.5Y-52.3
X82.5Y-67.0
X82.5Y-70.5
X82.5Y-71.75
X82.524Y-51.476
X83.25Y-66.25
X83.25Y-67.0
X83.75Y-64.0
X83.9Y-50.0
X84.5Y-45.5
X84.75Y-61.85
X85.0Y-32.25
X85.25Y-53.4
X85.25Y-76.5
X85.5Y-42.0
X85.5Y-43.0
X85.5Y-72.0
X85.75Y-57.0
X85.75Y-63.14
X85.75Y-64.0
X85.75Y-65.25
X86.75Y-57.6
X86.75Y-71.25
X86.75Y-77.5
X87.448Y-53.203
X87.495Y-52.405
X87.5Y-76.0
X87.75Y-61.14
X87.75Y-79.25
X88.25Y-76.0
X89.0Y-54.5
X89.0Y-76.0
X89.5Y-31.25
X89.5Y-32.75
X89.5Y-53.75
X89.701Y-49.049
X91.0Y-62.0
X91.0Y-62.75
X91.5Y-52.15
X92.0Y-31.25
X92.0Y-32.75
X92.0Y-62.0
X92.0Y-62.75
X92.75Y-66.74
X93.25Y-61.15
X93.5Y-47.75
X93.75Y-76.0
X94.0Y-31.25
X94.0Y-32.75
X94.0Y-47.0
X94.5Y-62.5
X94.5Y-65.34
X94.5Y-71.0
X94.5Y-78.5
X94.5Y-79.5
X95.25Y-66.14
X95.5Y-56.25
X95.75Y-61.14
X95.75Y-78.5
X95.75Y-79.5
X96.0Y-31.25
X96.0Y-32.75
X96.0Y-52.0
X96.25Y-45.5
X96.451Y-62.451
X96.75Y-83.5
X97.5Y-43.5
X97.75Y-56.25
X98.0Y-67.75
X98.0Y-68.5
X98.25Y-76.0
X98.5Y-43.0
X98.75Y-66.0
X98.75Y-80.5
X99.0Y-47.6
X99.5Y-66.74
X99.5Y-70.5
X99.5Y-77.5
X100.0Y-52.65
X101.25Y-53.15
X101.441Y-43.441
X102.151Y-48.849
X102.5Y-47.5
X103.5Y-43.0
X104.0Y-48.5
X104.5Y-43.5
X104.75Y-58.75
X104.75Y-60.25
X105.25Y-47.75
X105.5Y-43.5
X106.5Y-47.75
X106.5Y-58.75
X106.5Y-60.25
X108.5Y-36.5
X108.5Y-43.5
X109.5Y-36.5
X109.5Y-48.0
X110.0Y-63.25
X110.5Y-48.0
X110.75Y-52.75
X111.5Y-37.0
X111.75Y-53.75
X112.0Y-48.0
X112.5Y-63.25
X112.75Y-52.75
X113.0Y-48.0
X113.0Y-61.25
X113.5Y-37.0
X113.75Y-53.75
X114.0Y-61.25
X114.0Y-63.25
X114.25Y-55.5
X114.5Y-48.0
X115.0Y-42.5
X115.0Y-43.5
X115.0Y-61.25
X115.5Y-62.65
X116.0Y-48.0
X116.4Y-61.184
X117.0Y-42.5
X117.0Y-61.75
X117.5Y-48.0
X117.5Y-57.25
X118.0Y-43.5
X118.5Y-48.0
X120.75Y-66.25
X120.75Y-67.75
X122.25Y-66.25
X122.25Y-67.75
X122.75Y-50.25
X122.75Y-51.25
X122.75Y-52.25
T2
X42.5Y-106.5
X44.0Y-106.5
X48.25Y-106.5
X62.5Y-106.75
T3
X126.0Y-46.25
X126.0Y-48.25
X126.0Y-50.25
T4
X39.6Y-70.88
X39.6Y-73.42
X39.6Y-75.96
X39.6Y-78.5
X39.6Y-81.04
X39.6Y-83.58
X39.6Y-86.12
X39.6Y-88.66
X39.6Y-91.2
X39.6Y-93.74
X39.6Y-96.28
X39.6Y-98.82
X39.6Y-101.36
X39.6Y-103.9
X39.6Y-106.44
X65.0Y-70.88
X65.0Y-73.42
X65.0Y-75.96
X65.0Y-78.5
X65.0Y-81.04
X65.0Y-83.58
X65.0Y-86.12
X65.0Y-88.66
X65.0Y-91.2
X65.0Y-93.74
X65.0Y-96.28
X65.0Y-98.82
X65.0Y-101.36
X65.0Y-103.9
X65.0Y-106.44
T5
X126.0Y-44.05
X126.0Y-52.45
T3
X39.84Y-34.92G85X40.16Y-34.92
G05
X39.84Y-40.0G85X40.16Y-40.0
G05
X42.38Y-34.92G85X42.7Y-34.92
G05
X42.38Y-40.0G85X42.7Y-40.0
G05
X44.92Y-34.92G85X45.24Y-34.92
G05
X44.92Y-40.0G85X45.24Y-40.0
G05
X47.46Y-34.92G85X47.78Y-34.92
G05
X47.46Y-40.0G85X47.78Y-40.0
G05
X50.0Y-34.92G85X50.32Y-34.92
G05
X50.0Y-40.0G85X50.32Y-40.0
G05
X52.54Y-34.92G85X52.86Y-34.92
G05
X52.54Y-40.0G85X52.86Y-40.0
G05
X55.08Y-34.92G85X55.4Y-34.92
G05
X55.08Y-40.0G85X55.4Y-40.0
G05
X57.62Y-34.92G85X57.94Y-34.92
G05
X57.62Y-40.0G85X57.94Y-40.0
G05
X60.16Y-34.92G85X60.48Y-34.92
G05
X60.16Y-40.0G85X60.48Y-40.0
G05
X62.7Y-34.92G85X63.02Y-34.92
G05
X62.7Y-40.0G85X63.02Y-40.0
G05
X65.24Y-34.92G85X65.56Y-34.92
G05
X65.24Y-40.0G85X65.56Y-40.0
G05
X67.78Y-34.92G85X68.1Y-34.92
G05
X67.78Y-40.0G85X68.1Y-40.0
G05
X70.32Y-34.92G85X70.64Y-34.92
G05
X70.32Y-40.0G85X70.64Y-40.0
G05
X72.86Y-34.92G85X73.18Y-34.92
G05
X72.86Y-40.0G85X73.18Y-40.0
G05
X75.4Y-34.92G85X75.72Y-34.92
G05
X75.4Y-40.0G85X75.72Y-40.0
G05
X77.94Y-34.92G85X78.26Y-34.92
G05
X77.94Y-40.0G85X78.26Y-40.0
G05
X80.48Y-34.92G85X80.8Y-34.92
G05
X80.48Y-40.0G85X80.8Y-40.0
G05
X83.02Y-34.92G85X83.34Y-34.92
G05
X83.02Y-40.0G85X83.34Y-40.0
G05
X85.56Y-34.92G85X85.88Y-34.92
G05
X85.56Y-40.0G85X85.88Y-40.0
G05
X88.1Y-34.92G85X88.42Y-34.92
G05
X88.1Y-40.0G85X88.42Y-40.0
G05
X90.64Y-34.92G85X90.96Y-34.92
G05
X90.64Y-40.0G85X90.96Y-40.0
G05
X93.18Y-34.92G85X93.5Y-34.92
G05
X93.18Y-40.0G85X93.5Y-40.0
G05
X95.72Y-34.92G85X96.04Y-34.92
G05
X95.72Y-40.0G85X96.04Y-40.0
G05
X98.26Y-34.92G85X98.58Y-34.92
G05
X98.26Y-40.0G85X98.58Y-40.0
G05
X100.8Y-34.92G85X101.12Y-34.92
G05
X100.8Y-40.0G85X101.12Y-40.0
G05
X103.34Y-34.92G85X103.66Y-34.92
G05
X103.34Y-40.0G85X103.66Y-40.0
G05
X105.88Y-34.92G85X106.2Y-34.92
G05
X105.88Y-40.0G85X106.2Y-40.0
G05
X108.42Y-34.92G85X108.74Y-34.92
G05
X108.42Y-40.0G85X108.74Y-40.0
G05
X110.96Y-34.92G85X111.28Y-34.92
G05
X110.96Y-40.0G85X111.28Y-40.0
G05
X113.5Y-34.92G85X113.82Y-34.92
G05
X113.5Y-40.0G85X113.82Y-40.0
G05
M30
